<svg xmlns="http://www.w3.org/2000/svg" fill="none" viewBox="0 0 24 24"><path stroke="#fff" stroke-width="1.5" d="M13 6.005c0-.07.016-.141.043-.207a2.75 2.75 0 10-5.086 0A.545.545 0 018 6.005v0a.495.495 0 01-.495.495H5A1.5 1.5 0 003.5 8v2.505c0 .274.221.495.495.495v0a.545.545 0 00.207-.043 2.75 2.75 0 110 5.086.545.545 0 00-.207-.043v0a.495.495 0 00-.495.494V19A1.5 1.5 0 005 20.5h11a1.5 1.5 0 001.5-1.5v-2.506c0-.273.221-.494.494-.494v0c.072 0 .142.016.208.043a2.75 2.75 0 100-5.086.546.546 0 01-.207.043v0a.495.495 0 01-.495-.495V8A1.5 1.5 0 0016 6.5h-2.505A.495.495 0 0113 6.005v0z"/></svg>