
<svg xmlns="http://www.w3.org/2000/svg" version="1.1" xmlns:xlink="http://www.w3.org/1999/xlink" preserveAspectRatio="none" x="0px" y="0px" width="150px" height="150px" viewBox="0 0 150 150">
<defs>
<linearGradient id="Gradient_1" gradientUnits="userSpaceOnUse" x1="866.3" y1="783.9375" x2="866.3" y2="937.1624999999999" spreadMethod="pad">
<stop  offset="0%" stop-color="#000000" stop-opacity="0.8"/>

<stop  offset="100%" stop-color="#000000" stop-opacity="0.09803921568627451"/>
</linearGradient>

<linearGradient id="Gradient_2" gradientUnits="userSpaceOnUse" x1="1184" y1="-77.55000000000001" x2="1184" y2="-32.15" spreadMethod="pad">
<stop  offset="0%" stop-color="#000000" stop-opacity="0.8"/>

<stop  offset="100%" stop-color="#000000" stop-opacity="0.09803921568627451"/>
</linearGradient>

<g id="Layer0_0_MEMBER_0_FILL">
<path fill="url(#Gradient_1)" stroke="none" d="
M 618.75 805.55
Q 596.15 828 596.15 859.75 596.15 891.45 618.75 914.1 634.1 929.45 654 934.35
L 691.8 934.35
Q 711.75 929.45 727.1 914.1 749.55 891.45 749.55 859.75 749.55 828 727.1 805.55 704.65 783.15 672.9 783.15 641.2 783.15 618.75 805.55 Z"/>
</g>

<g id="Layer0_0_MEMBER_0_MEMBER_0_FILL">
<path fill="url(#Gradient_2)" stroke="none" d="
M 1110.25 -68.2
Q 1116.75 -74.7 1125.95 -74.7 1135.2 -74.7 1141.7 -68.2 1148.2 -61.65 1148.2 -52.45 1148.2 -48.05 1146.7 -44.2 1149.4 -49.1 1149.4 -55.1 1149.4 -64.5 1142.75 -71.15 1136.1 -77.8 1126.7 -77.8 1117.3 -77.8 1110.65 -71.15 1104.45 -65 1104 -56.45 1105.15 -63.15 1110.25 -68.2 Z"/>
</g>
</defs>

<g transform="matrix( 0.9778289794921875, 0, 0, 0.99139404296875, -582.95,-776.3) ">
<use xlink:href="#Layer0_0_MEMBER_0_FILL"/>
</g>

<g transform="matrix( 3.3001708984375, 0, 0, 3.3459625244140625, -3643.25,260.3) ">
<use xlink:href="#Layer0_0_MEMBER_0_MEMBER_0_FILL"/>
</g>
</svg>
