
<svg xmlns="http://www.w3.org/2000/svg" version="1.1" xmlns:xlink="http://www.w3.org/1999/xlink" preserveAspectRatio="none" x="0px" y="0px" width="620px" height="80px" viewBox="0 0 620 80">
<defs>
<linearGradient id="Gradient_1" gradientUnits="userSpaceOnUse" x1="519.7375000000001" y1="621.0625" x2="752.6625" y2="470.63750000000005" spreadMethod="pad">
<stop  offset="0%" stop-color="#FFFFFF" stop-opacity="0"/>

<stop  offset="100%" stop-color="#FFFFFF" stop-opacity="0.2"/>
</linearGradient>

<g id="color_02_0_Layer0_0_FILL">
<path fill="#FFFFFF" stroke="none" d="
M 172 172
L 172 0 0 0 0 172 172 172 Z"/>
</g>

<g id="color_01_0_Layer0_0_FILL">
<path fill="#6D8DA8" stroke="none" d="
M 172 172
L 172 0 0 0 0 172 172 172 Z"/>
</g>

<g id="Layer0_2_FILL">
<path fill="url(#Gradient_1)" stroke="none" d="
M 809.7 731.85
L 810.05 694.5 469.6 694.5 469.6 731.85 809.7 731.85 Z"/>
</g>
</defs>

<g transform="matrix( 3.5464935302734375, 0, 0, 0.4650726318359375, 4.95,0) ">
<g transform="matrix( 1, 0, 0, 1, 0,0) ">
<use xlink:href="#color_02_0_Layer0_0_FILL"/>
</g>
</g>

<g transform="matrix( 3.6046600341796875, 0, 0, 0.40692138671875, 0,5) ">
<g transform="matrix( 1, 0, 0, 1, 0,0) ">
<use xlink:href="#color_01_0_Layer0_0_FILL"/>
</g>
</g>

<g transform="matrix( 1.821044921875, 0, 0, 0.9370880126953125, -855.15,-645.8) ">
<use xlink:href="#Layer0_2_FILL"/>
</g>
</svg>
