
<svg xmlns="http://www.w3.org/2000/svg" version="1.1" xmlns:xlink="http://www.w3.org/1999/xlink" preserveAspectRatio="none" x="0px" y="0px" width="1280px" height="110px" viewBox="0 0 1280 110">
<defs>
<linearGradient id="Gradient_1" gradientUnits="userSpaceOnUse" x1="-66.70000000000002" y1="31.45" x2="274.4" y2="31.45" spreadMethod="pad">
<stop  offset="0%" stop-color="#FFFFFF" stop-opacity="0.2"/>

<stop  offset="100%" stop-color="#FFFFFF" stop-opacity="0"/>
</linearGradient>

<linearGradient id="Gradient_2" gradientUnits="userSpaceOnUse" x1="655.65" y1="-195.625" x2="655.65" y2="-120.47500000000001" spreadMethod="pad">
<stop  offset="0%" stop-color="#FFFFFF" stop-opacity="0.2"/>

<stop  offset="100%" stop-color="#FFFFFF" stop-opacity="0"/>
</linearGradient>

<linearGradient id="Gradient_3" gradientUnits="userSpaceOnUse" x1="1159.075" y1="-0.45000000000000284" x2="1137.2250000000001" y2="90.15" spreadMethod="pad">
<stop  offset="0%" stop-color="#FFFFFF" stop-opacity="0.2"/>

<stop  offset="100%" stop-color="#FFFFFF" stop-opacity="0"/>
</linearGradient>

<linearGradient id="Gradient_4" gradientUnits="userSpaceOnUse" x1="-67.1375" y1="30.8" x2="273.5375" y2="30.8" spreadMethod="pad">
<stop  offset="0%" stop-color="#FFFFFF" stop-opacity="0.2"/>

<stop  offset="100%" stop-color="#FFFFFF" stop-opacity="0"/>
</linearGradient>

<linearGradient id="Gradient_5" gradientUnits="userSpaceOnUse" x1="1319.1375" y1="31.4" x2="978.4625" y2="31.4" spreadMethod="pad">
<stop  offset="0%" stop-color="#FFFFFF" stop-opacity="0.2"/>

<stop  offset="100%" stop-color="#FFFFFF" stop-opacity="0"/>
</linearGradient>

<linearGradient id="Gradient_6" gradientUnits="userSpaceOnUse" x1="311.7375" y1="15.8" x2="218.7625" y2="15.8" spreadMethod="pad">
<stop  offset="0%" stop-color="#FFFFFF" stop-opacity="0.2"/>

<stop  offset="100%" stop-color="#FFFFFF" stop-opacity="0"/>
</linearGradient>

<linearGradient id="Gradient_7" gradientUnits="userSpaceOnUse" x1="225" y1="-5.362500000000001" x2="144.5" y2="-51.837500000000006" spreadMethod="pad">
<stop  offset="0%" stop-color="#FFFFFF" stop-opacity="0.2"/>

<stop  offset="100%" stop-color="#FFFFFF" stop-opacity="0"/>
</linearGradient>

<linearGradient id="Gradient_8" gradientUnits="userSpaceOnUse" x1="-67.17500000000001" y1="30.75" x2="273.475" y2="30.75" spreadMethod="pad">
<stop  offset="0%" stop-color="#FFFFFF" stop-opacity="0.2"/>

<stop  offset="100%" stop-color="#FFFFFF" stop-opacity="0"/>
</linearGradient>

<linearGradient id="Gradient_9" gradientUnits="userSpaceOnUse" x1="358.90000000000003" y1="49.87499999999999" x2="443.3" y2="88.82499999999999" spreadMethod="pad">
<stop  offset="0%" stop-color="#FFFFFF" stop-opacity="0.09803921568627451"/>

<stop  offset="100%" stop-color="#FFFFFF" stop-opacity="0"/>
</linearGradient>

<linearGradient id="Gradient_10" gradientUnits="userSpaceOnUse" x1="964.6500000000001" y1="6.575000000000001" x2="880.25" y2="-32.375" spreadMethod="pad">
<stop  offset="0%" stop-color="#FFFFFF" stop-opacity="0.09803921568627451"/>

<stop  offset="100%" stop-color="#FFFFFF" stop-opacity="0"/>
</linearGradient>

<linearGradient id="Gradient_11" gradientUnits="userSpaceOnUse" x1="964.6500000000001" y1="6.575000000000001" x2="880.25" y2="-32.375" spreadMethod="pad">
<stop  offset="0%" stop-color="#FFFFFF" stop-opacity="0.2"/>

<stop  offset="100%" stop-color="#FFFFFF" stop-opacity="0"/>
</linearGradient>

<linearGradient id="Gradient_12" gradientUnits="userSpaceOnUse" x1="102.5125" y1="28.55" x2="293.2875" y2="28.55" spreadMethod="pad">
<stop  offset="0%" stop-color="#FFFFFF" stop-opacity="0.09803921568627451"/>

<stop  offset="100%" stop-color="#FFFFFF" stop-opacity="0"/>
</linearGradient>

<linearGradient id="Gradient_13" gradientUnits="userSpaceOnUse" x1="465.25" y1="-87.93749999999999" x2="946.55" y2="-240.2625" spreadMethod="pad">
<stop  offset="0%" stop-color="#FFFFFF" stop-opacity="0.09803921568627451"/>

<stop  offset="100%" stop-color="#FFFFFF" stop-opacity="0.2"/>
</linearGradient>

<linearGradient id="Gradient_14" gradientUnits="userSpaceOnUse" x1="208.9" y1="-1.9000000000000021" x2="208.9" y2="60" spreadMethod="pad">
<stop  offset="0%" stop-color="#000000" stop-opacity="0.8"/>

<stop  offset="100%" stop-color="#000000" stop-opacity="0.09803921568627451"/>
</linearGradient>

<filter id="Filter_1" x="-20%" y="-100%" width="140%" height="300%" color-interpolation-filters="sRGB">
<feGaussianBlur in="SourceGraphic" stdDeviation="20,20" result="result1"/>
</filter>

<filter id="Filter_2" x="-20%" y="-100%" width="140%" height="300%" color-interpolation-filters="sRGB">
<feGaussianBlur in="SourceGraphic" stdDeviation="2,2" result="result1"/>
</filter>

<filter id="Filter_3" x="-20%" y="-100%" width="140%" height="300%" color-interpolation-filters="sRGB">
<feGaussianBlur in="SourceGraphic" stdDeviation="20,20" result="result1"/>
</filter>

<filter id="Filter_4" x="-20%" y="-91.74469559950175%" width="140%" height="283.48939119900353%" color-interpolation-filters="sRGB">
<feGaussianBlur in="SourceGraphic" stdDeviation="2,2" result="result1"/>
</filter>

<filter id="Filter_5" x="-20%" y="-100%" width="140%" height="300%" color-interpolation-filters="sRGB">
<feGaussianBlur in="SourceGraphic" stdDeviation="20,20" result="result1"/>
</filter>

<filter id="Filter_6" x="-20%" y="-91.74469559950175%" width="140%" height="283.48939119900353%" color-interpolation-filters="sRGB">
<feGaussianBlur in="SourceGraphic" stdDeviation="2,2" result="result1"/>
</filter>

<filter id="Filter_7" x="-24.60786494414001%" y="-100%" width="149.21572988828%" height="300%" color-interpolation-filters="sRGB">
<feGaussianBlur in="SourceGraphic" stdDeviation="20,20" result="result1"/>
</filter>

<filter id="Filter_8" x="-20%" y="-100%" width="140%" height="300%" color-interpolation-filters="sRGB">
<feGaussianBlur in="SourceGraphic" stdDeviation="1.3333333333333333,1.3333333333333333" result="result1"/>
</filter>

<g id="Mask_13_MASK_0_FILL">
<path fill="#FFFFFF" stroke="none" d="
M 1280 110
L 1280 0 0 0 0 110 1280 110 Z"/>
</g>

<g id="color_02_0_Layer0_0_FILL">
<path fill="#FFFFFF" stroke="none" d="
M 172 172
L 172 0 0 0 0 172 172 172 Z"/>
</g>

<g id="color_01_0_Layer0_0_FILL">
<path fill="#6D8DA8" stroke="none" d="
M 172 172
L 172 0 0 0 0 172 172 172 Z"/>
</g>

<g id="Layer6_0_FILL">
<path fill="url(#Gradient_1)" stroke="none" d="
M -66.7 -2.05
L -14.65 65 274.4 65 -66.7 -2.05 Z"/>
</g>

<g id="Layer6_1_FILL">
<path fill="url(#Gradient_2)" stroke="none" d="
M 1311.35 -127
L 1311.35 -189.05 0 -189.05 0 -127 1311.35 -127 Z"/>
</g>

<g id="Layer5_0_FILL">
<path fill="#000000" fill-opacity="0.2" stroke="none" d="
M 162.1 -84.15
L -27.1 -84.15 -84.4 105.05 104.8 105.05 162.1 -84.15 Z"/>
</g>

<g id="Layer4_1_FILL">
<path fill="#000000" fill-opacity="0.2" stroke="none" d="
M 1221.3 349.2
L 1272.5 160 585.65 160 534.45 349.2 1221.3 349.2 Z"/>
</g>

<g id="Layer4_3_FILL">
<path fill="url(#Gradient_3)" stroke="none" d="
M 1147.8 -10.15
L 1049.7 64.65 1340.8 -10.15 1147.8 -10.15 Z"/>
</g>

<g id="Layer4_4_FILL">
<path fill="url(#Gradient_4)" stroke="none" d="
M -66.7 -2.05
L -14.65 65 274.4 65 -66.7 -2.05 Z"/>
</g>

<g id="Layer4_5_FILL">
<path fill="url(#Gradient_5)" stroke="none" d="
M 1283 -1.5
L 978.9 -1.5 992.5 38.85 1283 38.85 1283 -1.5 Z"/>
</g>

<g id="Layer4_6_FILL">
<path fill="url(#Gradient_6)" stroke="none" d="
M 218.8 65.95
L 297.6 65.95 339.8 2.95 218.8 65.95 Z"/>

<path fill="url(#Gradient_7)" stroke="none" d="
M 255.8 -2.5
L 119.5 -8.45 101.75 46.95 255.8 -2.5 Z"/>
</g>

<g id="Layer4_7_FILL">
<path fill="url(#Gradient_8)" stroke="none" d="
M -66.7 -2.05
L -14.65 65 274.4 65 -66.7 -2.05 Z"/>
</g>

<g id="Layer4_8_FILL">
<path fill="url(#Gradient_9)" stroke="none" d="
M 403.7 -24.5
L 350.1 -9.05 330.05 31.05 322.4 63.55 403.7 -24.5 Z"/>

<path fill="url(#Gradient_10)" stroke="none" d="
M 1001.15 -7.1
L 1001.1 -7.1 856.75 -7.1 993.5 25.35 1001.15 -7.1 Z"/>

<path fill="url(#Gradient_11)" stroke="none" d="
M 1005.2 -24.45
L 1001.1 -7.1 1001.15 -7.1 993.5 25.35 990.55 37.95 997.2 13 997.05 13.65 1005.2 -24.45 Z"/>
</g>

<g id="Layer4_9_FILL">
<path fill="url(#Gradient_12)" stroke="none" d="
M 293.35 -5
L 134.8 -5 123.25 35.35 285.75 35.35 293.35 -5 Z"/>
</g>

<g id="Layer4_10_FILL">
<path fill="url(#Gradient_13)" stroke="none" d="
M 1003.3 -3.5
L 343.6 -3.5 328.1 36.85 990.7 36.85 1003.3 -3.5 Z"/>
</g>

<g id="Layer4_11_FILL">
<path fill="url(#Gradient_14)" stroke="none" d="
M 333.1 -3.7
L 333.55 -5 333.1 -5 333.1 -3.7 Z"/>
</g>

<g id="glow_blur_0_Layer0_0_FILL">
<path fill="#FFFFFF" stroke="none" d="
M 80.1 40.05
Q 80.1 23.45 68.35 11.7 56.65 0 40.05 0 23.45 0 11.7 11.7 0 23.45 0 40.05 0 56.65 11.7 68.35 23.45 80.1 40.05 80.1 56.65 80.1 68.35 68.35 80.1 56.65 80.1 40.05 Z"/>
</g>

<path id="Layer4_0_1_STROKES" stroke="#FFFFFF" stroke-width="3" stroke-linejoin="round" stroke-linecap="round" fill="none" d="
M -30.5 96.05
L 95.05 96.05 134.05 -30.5"/>

<path id="Layer4_11_1_STROKES" stroke="#FFFFFF" stroke-width="3" stroke-linejoin="round" stroke-linecap="round" fill="none" d="
M 368.15 -84
L 319.85 65 985.55 65 1012.3 -47.05"/>
</defs>

<mask id="Mask_Mask_1">
<g transform="matrix( 1, 0, 0, 1, 0,0) ">
<use xlink:href="#Mask_13_MASK_0_FILL"/>
</g>
</mask>

<g mask="url(#Mask_Mask_1)"/>

<g mask="url(#Mask_Mask_1)"/>

<g mask="url(#Mask_Mask_1)"/>

<g mask="url(#Mask_Mask_1)"/>

<g mask="url(#Mask_Mask_1)"/>

<g mask="url(#Mask_Mask_1)">
<g transform="matrix( 7.29901123046875, 0, -0.30279541015625, 1, 95.45,-95) ">
<g transform="matrix( 1, 0, 0, 1, 0,0) ">
<use xlink:href="#color_02_0_Layer0_0_FILL"/>
</g>
</g>

<g transform="matrix( 0.8301849365234375, 0, -0.30279541015625, 1, 20.45,-62) ">
<g transform="matrix( 1, 0, 0, 1, 0,0) ">
<use xlink:href="#color_02_0_Layer0_0_FILL"/>
</g>
</g>

<g transform="matrix( 4.11663818359375, 0, -0.30279541015625, 1, 345.95,-86) ">
<g transform="matrix( 1, 0, 0, 1, 0,0) ">
<use xlink:href="#color_02_0_Layer0_0_FILL"/>
</g>
</g>
</g>

<g mask="url(#Mask_Mask_1)">
<g transform="matrix( 7.7062225341796875, 0, 0, 1, -5.15,-102.05) ">
<g transform="matrix( 1, 0, 0, 1, 0,0) ">
<use xlink:href="#color_01_0_Layer0_0_FILL"/>
</g>
</g>
</g>

<g mask="url(#Mask_Mask_1)">
<g transform="matrix( 1, 0, 0, 1, 0,0) ">
<use xlink:href="#Layer6_0_FILL"/>
</g>

<g transform="matrix( -1, 0, 0, -1, 1301.3,-122.1) ">
<use xlink:href="#Layer6_1_FILL"/>
</g>
</g>

<g mask="url(#Mask_Mask_1)">
<g transform="matrix( 1, 0, 0, 1, 0,0) ">
<use xlink:href="#Layer5_0_FILL"/>
</g>

<g transform="matrix( -1.0999755859375, 0, 0.3331756591796875, -1.0999755859375, 102.3,102.55) ">
<g transform="matrix( 1, 0, 0, 1, 0,0) ">
<use xlink:href="#color_01_0_Layer0_0_FILL"/>
</g>
</g>
</g>

<g mask="url(#Mask_Mask_1)">
<g transform="matrix( 1, 0, 0, 1, 0,0) ">
<use xlink:href="#Layer4_0_1_STROKES"/>
</g>

<g transform="matrix( 1, 0, 0, 1, -224.45,-266.05) ">
<use xlink:href="#Layer4_1_FILL"/>
</g>

<g transform="matrix( -3.9934234619140625, 0, 0.297637939453125, -1.0999755859375, 994.35,80.65) ">
<g transform="matrix( 1, 0, 0, 1, 0,0) ">
<use xlink:href="#color_01_0_Layer0_0_FILL"/>
</g>
</g>

<g transform="matrix( 1, 0, 0, 1, 0,0) ">
<use xlink:href="#Layer4_3_FILL"/>
</g>

<g transform="matrix( 0.27264404296875, 0, 0, 1.4918060302734375, -6.95,1.55) ">
<use xlink:href="#Layer4_4_FILL"/>
</g>

<g transform="matrix( 0.83709716796875, 0, 0, 1, 208.55,-2) ">
<use xlink:href="#Layer4_5_FILL"/>
</g>

<g transform="matrix( 1, 0, 0, 1, 0,0) ">
<use xlink:href="#Layer4_6_FILL"/>
</g>

<g transform="matrix( -0.24749755859375, -0.114227294921875, 0.6251068115234375, -1.35443115234375, 80.95,80.3) ">
<use xlink:href="#Layer4_7_FILL"/>
</g>

<g transform="matrix( 1, 0, 0, 1, 0,0) ">
<use xlink:href="#Layer4_8_FILL"/>
</g>

<g transform="matrix( 1, 0, 0, 1, 0,0) ">
<use xlink:href="#Layer4_9_FILL"/>
</g>

<g transform="matrix( 1, 0, 0, 1, 0.7,0.95) ">
<use xlink:href="#Layer4_10_FILL"/>
</g>

<g transform="matrix( 1, 0, 0, 1, 0.7,6.95) ">
<use xlink:href="#Layer4_11_FILL"/>

<use xlink:href="#Layer4_11_1_STROKES"/>
</g>

<g filter="url(#Filter_1)" transform="matrix( 1, 0, 0, 1, 0,0) ">
<g transform="matrix( 8.5400390625, 0, 0, 0.106231689453125, 164.9,67.1) ">
<g transform="matrix( 1, 0, 0, 1, 0,0) ">
<use xlink:href="#glow_blur_0_Layer0_0_FILL"/>
</g>
</g>
</g>

<g filter="url(#Filter_2)" transform="matrix( 1, 0, 0, 1, 0,0) ">
<g transform="matrix( 3.0739898681640625, 0, 0, 0.1038818359375, 383.55,67.3) ">
<g transform="matrix( 1, 0, 0, 1, 0,0) ">
<use xlink:href="#glow_blur_0_Layer0_0_FILL"/>
</g>
</g>
</g>
</g>

<g mask="url(#Mask_Mask_1)"/>

<g mask="url(#Mask_Mask_1)">
<g filter="url(#Filter_3)" transform="matrix( 1, 0, 0, 1, 0,0) ">
<g transform="matrix( 15.5323486328125, 0, 0, 0.1378173828125, 608.7,-2.85) ">
<g transform="matrix( 1, 0, 0, 1, 0,0) ">
<use xlink:href="#glow_blur_0_Layer0_0_FILL"/>
</g>
</g>
</g>

<g filter="url(#Filter_4)" transform="matrix( 1, 0, 0, 1, 0,0) ">
<g transform="matrix( 5.59130859375, 0, 0, 0.134796142578125, 1006.35,-2.65) ">
<g transform="matrix( 1, 0, 0, 1, 0,0) ">
<use xlink:href="#glow_blur_0_Layer0_0_FILL"/>
</g>
</g>
</g>

<g filter="url(#Filter_5)" transform="matrix( 1, 0, 0, 1, 0,0) ">
<g transform="matrix( 15.525070190429688, 0, 0, 0.1378173828125, -477.25,-5) ">
<g transform="matrix( 1, 0, 0, 1, 0,0) ">
<use xlink:href="#glow_blur_0_Layer0_0_FILL"/>
</g>
</g>
</g>

<g filter="url(#Filter_6)" transform="matrix( 1, 0, 0, 1, 0,0) ">
<g transform="matrix( 5.588409423828125, 0, 0, 0.134796142578125, -79.6,-4.8) ">
<g transform="matrix( 1, 0, 0, 1, 0,0) ">
<use xlink:href="#glow_blur_0_Layer0_0_FILL"/>
</g>
</g>
</g>

<g filter="url(#Filter_7)" transform="matrix( 1, 0, 0, 1, 0,0) ">
<g transform="matrix( 5.3695068359375, 0, 0, 0.075164794921875, -204.55,92) ">
<g transform="matrix( 1, 0, 0, 1, 0,0) ">
<use xlink:href="#glow_blur_0_Layer0_0_FILL"/>
</g>
</g>
</g>

<g filter="url(#Filter_8)" transform="matrix( 1, 0, 0, 1, 0,0) ">
<g transform="matrix( 1.932952880859375, 0, 0, 0.073516845703125, -67.1,92.6) ">
<g transform="matrix( 1, 0, 0, 1, 0,0) ">
<use xlink:href="#glow_blur_0_Layer0_0_FILL"/>
</g>
</g>
</g>
</g>

<g transform="matrix( 1, 0, 0, 1, -466.05,0) ">
<g transform="matrix( 1, 0, 0, 1, 0,0) ">
<use xlink:href="#color_01_0_Layer0_0_FILL"/>
</g>
</g>

<g transform="matrix( 1, 0, 0, 1, -258.9,0) ">
<g transform="matrix( 1, 0, 0, 1, 0,0) ">
<use xlink:href="#color_02_0_Layer0_0_FILL"/>
</g>
</g>
</svg>
