
<svg xmlns="http://www.w3.org/2000/svg" version="1.1" xmlns:xlink="http://www.w3.org/1999/xlink" preserveAspectRatio="none" x="0px" y="0px" width="150px" height="150px" viewBox="0 0 150 150">
<defs>
<path id="Layer0_0_MEMBER_0_1_STROKES" stroke="#FFFFFF" stroke-width="5" stroke-linejoin="round" stroke-linecap="butt" fill="none" d="
M 106.54285888671893 92.0404052734375
L 106.54285888671893 92.10450439453143 114.87891845703143 100.373291015625 100.3228759765625 114.85969238281268 92.05093994140634 106.52680664062518
Q 89.10125732421875 108.19338378906241 85.25384521484375 109.34716796875
L 85.25384521484375 121.14140625000005 64.73431396484375 121.14140625000005 64.73431396484375 109.34716796875
Q 60.88690185546875 108.19338378906241 57.87309570312482 106.52680664062518
L 49.601159667969114 114.85969238281268 35.04511718750018 100.373291015625 43.38117675781268 92.10450439453143 43.38117675781268 92.0404052734375
Q 41.71396484375009 89.09184570312505 40.55974121093732 85.24589843750005
L 28.82513427734375 85.24589843750005 28.82513427734375 64.73417968750005 40.55974121093732 64.73417968750005
Q 41.71396484375009 60.888232421875045 43.38117675781268 57.87557373046866
L 35.04511718750018 49.54268798828116 49.601159667969114 35.05628662109393 57.80897216796893 43.38917236328143 57.87309570312482 43.38917236328143
Q 60.88690185546875 41.72259521484375 64.73431396484375 40.56881103515616
L 64.73431396484375 28.838671875000045 85.25384521484375 28.838671875000045 85.25384521484375 40.56881103515616
Q 89.10125732421875 41.72259521484375 92.05093994140634 43.38917236328143
L 92.11506347656268 43.38917236328143 100.3228759765625 35.05628662109393 114.87891845703143 49.54268798828116 106.54285888671893 57.87557373046866
Q 108.21007080078107 60.888232421875045 109.36429443359384 64.73417968750005
L 121.16302490234375 64.73417968750005 121.16302490234375 85.24589843750005 109.36429443359384 85.24589843750005
Q 108.21007080078107 89.09184570312505 106.54285888671893 92.0404052734375 Z"/>

<path id="Layer0_0_MEMBER_1_1_STROKES" stroke="#FFFFFF" stroke-width="5" stroke-linejoin="round" stroke-linecap="butt" fill="none" d="
M 90.38372802734375 74.99003906250005
Q 90.38372802734375 81.33585205078134 85.89508056640625 85.88688964843755 81.34230957031286 90.37382812500005 74.99407958984375 90.37382812500005 68.58172607421875 90.37382812500005 64.09307861328125 85.88688964843755 59.60443115234375 81.33585205078134 59.60443115234375 74.99003906250005 59.60443115234375 68.58012695312505 64.09307861328125 64.09318847656255 68.58172607421875 59.606250000000045 74.99407958984375 59.606250000000045 81.34230957031286 59.606250000000045 85.89508056640625 64.09318847656255 90.38372802734375 68.58012695312505 90.38372802734375 74.99003906250005 Z"/>
</defs>

<g transform="matrix( 1.282470703125, 0, 0, 1.281982421875, -3505.6,-1089.05) ">
<use xlink:href="#Layer0_0_MEMBER_0_1_STROKES" transform="matrix( 0.7797393798828125, 0, 0, 0.780029296875, 2733.45,849.5) "/>
</g>

<g transform="matrix( 1.282470703125, 0, 0, 1.281982421875, -3505.6,-1089.05) ">
<use xlink:href="#Layer0_0_MEMBER_1_1_STROKES" transform="matrix( 0.7797393798828125, 0, 0, 0.780029296875, 2733.45,849.5) "/>
</g>
</svg>
