
<svg xmlns="http://www.w3.org/2000/svg" version="1.1" xmlns:xlink="http://www.w3.org/1999/xlink" preserveAspectRatio="none" x="0px" y="0px" width="150px" height="150px" viewBox="0 0 150 150">
<defs>
<g id="Layer0_0_FILL">
<path fill="#FFFFFF" stroke="none" d="
M 287.85 128.8
Q 292.35 128.8 295.05 126 297.7 123.2 297.7 119 297.7 114.75 295 112 292.25 109.2 287.85 109.2 283.6 109.2 280.85 111.95 278.05 114.7 278.05 119 278.05 123.2 280.7 126 283.4 128.8 287.85 128.8
M 307.2 40.75
Q 300.65 34.1 288.8 34.1 277.2 34.1 270.45 40.9 263.65 47.75 263.55 60.1
L 281.55 60.1
Q 281.7 55.1 283.7 52.2 285.75 49.25 288.8 49.25 295.7 49.25 295.7 59.9 295.7 63.35 294.1 66.7 292.5 70.05 287.75 75.35 283.2 80.15 281.5 85.4 279.7 90.65 279.7 99.55
L 295.5 99.55
Q 295.6 94.15 296.7 90.8 297.8 87.45 300.4 84.35
L 305.7 78.35
Q 313.75 68.95 313.75 59.1 313.75 47.3 307.2 40.75 Z"/>
</g>
</defs>

<g transform="matrix( 1, 0, 0, 1, -213.65,-6.45) ">
<use xlink:href="#Layer0_0_FILL"/>
</g>
</svg>
