
<svg xmlns="http://www.w3.org/2000/svg" version="1.1" xmlns:xlink="http://www.w3.org/1999/xlink" preserveAspectRatio="none" x="0px" y="0px" width="150px" height="150px" viewBox="0 0 150 150">
<defs>
<g id="Layer0_0_FILL">
<path fill="#FFFFFF" stroke="none" d="
M 101.85 59
Q 101.5 58.5 101.5 56.65
L 101.5 54.15 100.95 54.75 97.15 59
Q 97.15 65.85 97.15 75
L 97.15 112.4
Q 97.15 113.25 97.15 113.9 96.8 115.25 95.8 115.6 95 115.9 93.8 115.25 93.65 115.1 93.3 114.9 93 114.75 92.8 114.6 83.6 107.25 79.1 103.75 71.75 97.9 66.25 93.7
L 63.4 96.9
Q 72.6 104.25 90.3 118.1 91.8 119.25 93.3 119.6 96.3 120.6 98.8 118.75 101.15 117.1 101.5 113.9
L 101.5 103.05
Q 101.5 99.7 101.5 98.2 101.5 95.2 101.5 93.4 101.5 92.05 101.85 91.2 102.35 90.55 103.65 90.2 107.15 89.05 109.7 86.85 112.2 84.7 113.5 81.35 116.2 74.7 113.5 68.5 110.7 62.5 104 60.15 102.15 59.5 101.85 59
M 103.35 64.5
Q 107.35 65.85 109.7 70.35 111.85 74.7 110 79.35 108.15 83.7 103.85 85.55 102.5 86.2 102 85.85 101.5 85.35 101.5 83.85 101.5 82.85 101.5 75 101.5 72 101.5 70.35 101.5 67.65 101.5 65.85 101.5 64.85 102 64.5 102.35 64.15 103.35 64.5
M 96.15 34.95
Q 97.15 35.45 97.3 36.8 97.3 37.45 97.15 38.95 97.15 43.15 97.15 59
L 100.95 54.75 101.5 54.1 101.5 38.6
Q 101.5 36.45 101.5 35.95 101.15 32.8 98.15 30.95 95 29.25 92.3 30.95 90.8 31.95 88.8 33.45 86.65 35.1 85.45 36.1 75.25 43.95 61.6 54.8 60.75 55.5 59.9 55.65 59.25 55.8 58.25 55.8
L 44.55 55.8
Q 40.7 55.8 38.2 57.65 33.5 60.8 33.5 66.35 33.5 69.35 33.5 75.2 33.5 80.35 33.5 84.05 33.7 88.55 36.55 91.35 39.55 94.4 43.9 94.4 50.9 94.55 57.55 94.4 59.05 94.4 60.25 94.9 61.4 95.2 62.6 96.2 62.9 96.55 63.4 96.9
L 66.25 93.7
Q 65.75 93.2 65.25 92.9 64.1 92.05 63.75 91.05 63.25 90.2 63.25 88.85 63.4 71.65 63.25 61.8 63.25 60.15 63.75 59.15 64.25 58 65.6 57.15 74.45 50.15 91.95 36.3
L 93.8 34.95
Q 95 34.3 96.15 34.95
M 37.7 66.35
Q 37.7 63.65 39.55 62 41.35 60.15 43.9 60.15 48.55 60 56.75 60 58.25 60 58.55 60.3 58.9 60.65 58.9 62.15 58.9 66.5 58.9 74.85 58.9 86.35 58.9 87.85 58.9 89.35 58.4 89.7 58.05 90.2 56.75 90.2 48.4 90.35 44.2 90.2 41.35 90.05 39.55 88.35 37.7 86.55 37.7 84.05 37.35 75.5 37.7 66.35
M 101.5 54.15
L 101.5 54.1 100.95 54.75 101.5 54.15 Z"/>
</g>

<path id="Layer0_0_1_STROKES" stroke="#FFFFFF" stroke-width="1" stroke-linejoin="round" stroke-linecap="round" fill="none" d="
M 66.25 93.7
Q 65.75 93.2 65.25 92.9 64.1 92.05 63.75 91.05 63.25 90.2 63.25 88.85 63.4 71.65 63.25 61.8 63.25 60.15 63.75 59.15 64.25 58 65.6 57.15 74.45 50.15 91.95 36.3
L 93.8 34.95
Q 95 34.3 96.15 34.95 97.15 35.45 97.3 36.8 97.3 37.45 97.15 38.95 97.15 43.15 97.15 59
M 101.5 54.125
L 101.5 38.6
Q 101.5 36.45 101.5 35.95 101.15 32.8 98.15 30.95 95 29.25 92.3 30.95 90.8 31.95 88.8 33.45 86.65 35.1 85.45 36.1 75.25 43.95 61.6 54.8 60.75 55.5 59.9 55.65 59.25 55.8 58.25 55.8
L 44.55 55.8
Q 40.7 55.8 38.2 57.65 33.5 60.8 33.5 66.35 33.5 69.35 33.5 75.2 33.5 80.35 33.5 84.05 33.7 88.55 36.55 91.35 39.55 94.4 43.9 94.4 50.9 94.55 57.55 94.4 59.05 94.4 60.25 94.9 61.4 95.2 62.6 96.2 62.9 96.55 63.4 96.9
L 66.25 93.7
M 97.15 59
Q 97.15 65.85 97.15 75
L 97.15 112.4
Q 97.15 113.25 97.15 113.9 96.8 115.25 95.8 115.6 95 115.9 93.8 115.25 93.65 115.1 93.3 114.9 93 114.75 92.8 114.6 83.6 107.25 79.1 103.75 71.75 97.9 66.25 93.7
M 101.5 54.15
L 101.5 56.65
Q 101.5 58.5 101.85 59 102.15 59.5 104 60.15 110.7 62.5 113.5 68.5 116.2 74.7 113.5 81.35 112.2 84.7 109.7 86.85 107.15 89.05 103.65 90.2 102.35 90.55 101.85 91.2 101.5 92.05 101.5 93.4 101.5 95.2 101.5 98.2 101.5 99.7 101.5 103.05
L 101.5 113.9
Q 101.15 117.1 98.8 118.75 96.3 120.6 93.3 119.6 91.8 119.25 90.3 118.1 72.6 104.25 63.4 96.9
M 101.5 54.125
L 101.5 54.15 100.95 54.75"/>

<path id="Layer0_0_2_STROKES" stroke="#FFFFFF" stroke-width="5" stroke-linejoin="round" stroke-linecap="round" fill="none" d="
M 100.95 54.75
L 97.15 59
M 101.5 54.125
L 100.95 54.75
M 97.15 59
L 66.25 93.7
M 116.55 37.3
L 101.975 53.6 101.5 54.15
M 63.4 96.9
L 45.9 116.6
M 101.975 53.6
L 101.5 54.125"/>
</defs>

<g transform="matrix( 1, 0, 0, 1, 0,0) ">
<use xlink:href="#Layer0_0_FILL"/>

<use xlink:href="#Layer0_0_1_STROKES"/>

<use xlink:href="#Layer0_0_2_STROKES"/>
</g>
</svg>
