
<svg xmlns="http://www.w3.org/2000/svg" version="1.1" xmlns:xlink="http://www.w3.org/1999/xlink" preserveAspectRatio="none" x="0px" y="0px" width="920px" height="650px" viewBox="0 0 920 650">
<defs>
<linearGradient id="Gradient_1" gradientUnits="userSpaceOnUse" x1="630.3" y1="838.375" x2="630.3" y2="242.42499999999995" spreadMethod="pad">
<stop  offset="0%" stop-color="#000000" stop-opacity="0.26666666666666666"/>

<stop  offset="100%" stop-color="#000000" stop-opacity="0.6"/>
</linearGradient>

<g id="color_02_0_Layer0_0_FILL">
<path fill="#FFFFFF" stroke="none" d="
M 172 172
L 172 0 0 0 0 172 172 172 Z"/>
</g>

<g id="color_01_0_Layer0_0_FILL">
<path fill="#6D8DA8" stroke="none" d="
M 172 172
L 172 0 0 0 0 172 172 172 Z"/>
</g>

<g id="Layer0_2_FILL">
<path fill="url(#Gradient_1)" stroke="none" d="
M 1220 159.05
L 60 159.05 60 839.05 1220 839.05 1220 159.05 Z"/>
</g>
</defs>

<g transform="matrix( 5.23248291015625, 0, 0, 3.77899169921875, 10,0) ">
<g transform="matrix( 1, 0, 0, 1, 0,0) ">
<use xlink:href="#color_02_0_Layer0_0_FILL"/>
</g>
</g>

<g transform="matrix( 5.3488006591796875, 0, 0, 3.6045379638671875, 0,15) ">
<g transform="matrix( 1, 0, 0, 1, 0,0) ">
<use xlink:href="#color_01_0_Layer0_0_FILL"/>
</g>
</g>

<g transform="matrix( 0.775848388671875, 0, 0, 0.882354736328125, -36.55,-115.35) ">
<use xlink:href="#Layer0_2_FILL"/>
</g>
</svg>
